<?xml version="1.0" encoding="UTF-8" standalone="no"?>
<!-- Created with Inkscape (http://www.inkscape.org/) -->

<svg
   width="384"
   height="96"
   viewBox="0 0 101.6 25.4"
   version="1.1"
   id="svg1"
   sodipodi:docname="saw.svg"
   inkscape:version="1.3 (0e150ed6c4, 2023-07-21)"
   xmlns:inkscape="http://www.inkscape.org/namespaces/inkscape"
   xmlns:sodipodi="http://sodipodi.sourceforge.net/DTD/sodipodi-0.dtd"
   xmlns="http://www.w3.org/2000/svg"
   xmlns:svg="http://www.w3.org/2000/svg">
  <sodipodi:namedview
     id="namedview1"
     pagecolor="#000000"
     bordercolor="#000000"
     borderopacity="0.25"
     inkscape:showpageshadow="false"
     inkscape:pageopacity="0.0"
     inkscape:pagecheckerboard="true"
     inkscape:deskcolor="#d1d1d1"
     inkscape:document-units="mm"
     inkscape:zoom="3.2814573"
     inkscape:cx="214.08172"
     inkscape:cy="96.146308"
     inkscape:window-width="1858"
     inkscape:window-height="1057"
     inkscape:window-x="54"
     inkscape:window-y="-8"
     inkscape:window-maximized="1"
     inkscape:current-layer="layer1" />
  <defs
     id="defs1" />
  <g
     inkscape:label="Layer 1"
     inkscape:groupmode="layer"
     id="layer1">
    <path
       id="path1"
       style="fill:#817d8a;fill-opacity:1;stroke:#000000;stroke-width:0.408557;stroke-linecap:round;stroke-linejoin:round;stroke-dasharray:none;stroke-opacity:1;paint-order:stroke fill markers"
       d="M 35.554485,0.537434 32.196034,3.10627 31.636378,5.335074 a 9.8053684,9.8053684 0 0 0 -0.783415,0.783415 l -1.037662,-2.674255 -1.624191,3.903637 0.629936,2.211752 0.03411,-0.05684 a 9.8053684,9.8053684 0 0 0 -0.313676,1.13068 l -2.242757,-1.802474 0.54467,4.192509 1.651578,1.600419 0.001,-0.05995 a 9.8053684,9.8053684 0 0 0 0.280087,1.128097 l -2.829802,-0.4377 2.568319,3.358452 2.22157,0.558105 a 9.8053684,9.8053684 0 0 0 0.786515,0.786516 l -2.670121,1.036112 3.903637,1.62419 2.211752,-0.629935 -0.06356,-0.03824 a 9.8053684,9.8053684 0 0 0 1.139465,0.315226 l -1.804541,2.245341 4.193025,-0.544669 1.60042,-1.651579 -0.09509,-0.0016 a 9.8053684,9.8053684 0 0 0 1.16427,-0.290422 l -0.43925,2.840654 3.358968,-2.568319 0.559656,-2.230355 -0.02325,0.01292 a 9.8053684,9.8053684 0 0 0 0.802535,-0.802535 l 1.04128,2.68149 1.62419,-3.903121 -0.629936,-2.211751 -0.0739,0.12299 a 9.8053684,9.8053684 0 0 0 0.340548,-1.208195 l 2.256193,1.813843 -0.545187,-4.193026 -1.651578,-1.600419 -5.17e-4,0.04031 A 9.8053684,9.8053684 0 0 0 47.433863,9.7069 l 2.837036,0.438733 -2.568318,-3.358451 -2.230355,-0.560172 0.02325,0.04237 A 9.8053684,9.8053684 0 0 0 44.691391,5.444108 l 2.673222,-1.037146 -3.903638,-1.624707 -2.211751,0.630452 0.02739,0.01654 a 9.8053684,9.8053684 0 0 0 -1.09399,-0.30489 l 1.795239,-2.234489 -4.193025,0.545186 -1.599903,1.651579 0.103353,0.0015 a 9.8053684,9.8053684 0 0 0 -1.173054,0.289388 z" />
    <circle
       style="fill:#c63d37;fill-opacity:1;stroke:#000000;stroke-width:0.421085;stroke-linecap:round;stroke-linejoin:round;stroke-dasharray:none;stroke-opacity:1;paint-order:stroke fill markers"
       id="circle1"
       cx="12.675132"
       cy="12.703099"
       r="5.5362101" />
    <circle
       style="fill:#000000;fill-opacity:1;stroke:none;stroke-width:0.0514138;stroke-linecap:round;stroke-linejoin:round;stroke-dasharray:none;stroke-opacity:1;paint-order:stroke fill markers"
       id="circle2"
       cx="12.675132"
       cy="12.703099"
       r="0.67596239" />
    <rect
       style="fill:#a5a7b7;fill-opacity:1;stroke:none;stroke-width:0.569437;stroke-linecap:round;stroke-linejoin:round;stroke-dasharray:none;stroke-opacity:1;paint-order:stroke fill markers"
       id="rect16"
       width="50.799999"
       height="4.3869042"
       x="50.799999"
       y="8.8692808" />
    <rect
       style="fill:#a5a7b7;fill-opacity:1;stroke:none;stroke-width:0.569437;stroke-linecap:round;stroke-linejoin:round;stroke-dasharray:none;stroke-opacity:1;paint-order:stroke fill markers"
       id="rect17"
       width="50.799999"
       height="2.1934521"
       x="50.799999"
       y="14.860559" />
  </g>
</svg>
