<?xml version="1.0" encoding="UTF-8" standalone="no"?>
<!-- Created with Inkscape (http://www.inkscape.org/) -->

<svg
   width="384"
   height="384"
   viewBox="0 0 101.6 101.6"
   version="1.1"
   id="svg1"
   sodipodi:docname="saw.svg"
   inkscape:version="1.3 (0e150ed6c4, 2023-07-21)"
   xmlns:inkscape="http://www.inkscape.org/namespaces/inkscape"
   xmlns:sodipodi="http://sodipodi.sourceforge.net/DTD/sodipodi-0.dtd"
   xmlns="http://www.w3.org/2000/svg"
   xmlns:svg="http://www.w3.org/2000/svg">
  <sodipodi:namedview
     id="namedview1"
     pagecolor="#000000"
     bordercolor="#000000"
     borderopacity="0.25"
     inkscape:showpageshadow="false"
     inkscape:pageopacity="0.0"
     inkscape:pagecheckerboard="true"
     inkscape:deskcolor="#d1d1d1"
     inkscape:document-units="mm"
     inkscape:zoom="1"
     inkscape:cx="130"
     inkscape:cy="177.5"
     inkscape:window-width="1858"
     inkscape:window-height="1057"
     inkscape:window-x="54"
     inkscape:window-y="-8"
     inkscape:window-maximized="1"
     inkscape:current-layer="layer1"
     showgrid="true">
    <inkscape:grid
       id="grid1"
       units="px"
       originx="0"
       originy="0"
       spacingx="50.8"
       spacingy="50.8"
       empcolor="#0099e5"
       empopacity="0.30196078"
       color="#0099e5"
       opacity="0.14901961"
       empspacing="5"
       dotted="false"
       gridanglex="30"
       gridanglez="30"
       visible="true" />
  </sodipodi:namedview>
  <defs
     id="defs1" />
  <g
     inkscape:label="Layer 1"
     inkscape:groupmode="layer"
     id="layer1">
    <path
       id="path1"
       style="fill:#817d8a;fill-opacity:1;stroke:none;stroke-width:2.646;stroke-linecap:round;stroke-linejoin:round;stroke-dasharray:none;stroke-opacity:1;paint-order:normal"
       d="m 71.389202,2.491052 -6.325861,4.8385691 -1.054147,4.1980969 a 18.469049,18.469049 0 0 0 -1.475614,1.475614 l -1.954504,-5.037133 -3.059269,7.352755 1.186526,4.165977 0.06424,-0.10706 a 18.469049,18.469049 0 0 0 -0.590828,2.12971 l -4.22438,-3.395078 1.025922,7.896863 3.110854,3.014493 0.0019,-0.11292 a 18.469049,18.469049 0 0 0 0.527562,2.124846 l -5.330115,-0.824438 4.837595,6.325863 4.184471,1.051228 a 18.469049,18.469049 0 0 0 1.481452,1.481454 l -5.029345,1.951583 7.352752,3.059268 4.16598,-1.186522 -0.11972,-0.07202 a 18.469049,18.469049 0 0 0 2.146257,0.593748 l -3.398971,4.229245 7.897836,-1.025918 3.014496,-3.110857 -0.17912,-0.003 a 18.469049,18.469049 0 0 0 2.192982,-0.547028 l -0.827356,5.350557 6.326833,-4.837597 1.054147,-4.201017 -0.0438,0.02434 a 18.469049,18.469049 0 0 0 1.511626,-1.511626 l 1.96132,5.050761 3.059267,-7.351783 -1.186526,-4.165977 -0.1392,0.23166 a 18.469049,18.469049 0 0 0 0.641444,-2.275714 l 4.249688,3.416492 -1.026896,-7.897839 -3.110854,-3.014493 -9.74e-4,0.07592 A 18.469049,18.469049 0 0 0 93.7648,19.762337 l 5.343741,0.826382 -4.837593,-6.325859 -4.201019,-1.055122 0.0438,0.0798 A 18.469049,18.469049 0 0 0 88.599175,11.733086 L 93.634364,9.7795547 86.281608,6.7193132 82.11563,7.906809 l 0.0516,0.03116 A 18.469049,18.469049 0 0 0 80.106615,7.3636891 l 3.381449,-4.2088052 -7.897836,1.0268938 -3.013522,3.1108554 0.19468,0.0028 a 18.469049,18.469049 0 0 0 -2.209542,0.545088 z" />
    <rect
       style="fill:#a5a7b7;fill-opacity:1;stroke:none;stroke-width:1.13887;stroke-linecap:round;stroke-linejoin:round;stroke-dasharray:none;stroke-opacity:1;paint-order:stroke fill markers"
       id="rect16"
       width="101.6"
       height="8.7738085"
       x="2.1316282e-14"
       y="67.720726" />
    <rect
       style="fill:#a5a7b7;fill-opacity:1;stroke:none;stroke-width:1.13887;stroke-linecap:round;stroke-linejoin:round;stroke-dasharray:none;stroke-opacity:1;paint-order:stroke fill markers"
       id="rect17"
       width="101.6"
       height="4.3869042"
       x="2.1316282e-14"
       y="79.703285" />
    <path
       id="path19"
       style="display:inline;fill:none;fill-opacity:1;stroke:#33333a;stroke-width:2.64583333;stroke-linecap:round;stroke-linejoin:round;stroke-dasharray:none;stroke-opacity:1;paint-order:stroke fill markers"
       d="M 20.516267,1.3805167 13.91763,6.4277286 12.818027,10.80685 a 19.265449,19.265449 0 0 0 -1.539243,1.539245 L 9.2400001,7.0917561 6.048813,14.761568 l 1.2376899,4.345617 0.067011,-0.111677 a 19.265449,19.265449 0 0 0 -0.616305,2.221544 l -4.4065384,-3.541475 1.0701605,8.237382 3.2449964,3.14448 0.00198,-0.11779 a 19.265449,19.265449 0 0 0 0.5503108,2.216472 l -5.5599536,-0.859988 5.0461959,6.598638 4.3649085,1.096558 a 19.265449,19.265449 0 0 0 1.545333,1.545335 l -5.2462138,2.035738 7.6698078,3.191185 4.345621,-1.237686 -0.124882,-0.07513 a 19.265449,19.265449 0 0 0 2.238804,0.619351 l -3.545537,4.411614 8.238397,-1.070157 3.144483,-3.245 -0.186844,-0.0032 a 19.265449,19.265449 0 0 0 2.287545,-0.570617 l -0.863031,5.581278 6.599651,-5.046199 1.099604,-4.382168 -0.04569,0.02539 a 19.265449,19.265449 0 0 0 1.576807,-1.57681 l 2.045894,5.268554 3.191185,-7.668797 -1.23769,-4.345618 -0.145202,0.241651 a 19.265449,19.265449 0 0 0 0.669103,-2.373845 l 4.432939,3.563813 -1.071178,-8.2384 -3.244996,-3.14448 -9.89e-4,0.0792 a 19.265449,19.265449 0 0 0 -0.565474,-2.17982 l 5.574168,0.862017 -5.046195,-6.598636 -4.382169,-1.10062 0.04569,0.08324 a 19.265449,19.265449 0 0 0 -1.579863,-1.621481 l 5.252311,-2.0377688 -7.669813,-3.1922015 -4.345618,1.2387015 0.05382,0.032503 A 19.265449,19.265449 0 0 0 29.609581,6.4632656 l 3.527261,-4.3902921 -8.238397,1.0711742 -3.143467,3.244998 0.203074,0.00292 a 19.265449,19.265449 0 0 0 -2.304819,0.5685927 z" />
    <circle
       style="fill:#c63d37;fill-opacity:1;stroke:#33333a;stroke-width:2.64583;stroke-linecap:round;stroke-linejoin:round;stroke-dasharray:none;stroke-opacity:1;paint-order:markers fill stroke"
       id="circle1"
       cx="25.4"
       cy="25.4"
       r="11.939478" />
    <circle
       style="fill:#33333a;fill-opacity:1;stroke:none;stroke-width:0.201243;stroke-linecap:round;stroke-linejoin:round;stroke-dasharray:none;stroke-opacity:1;paint-order:stroke fill markers"
       id="circle2"
       cx="25.4"
       cy="25.4"
       r="2.6458333" />
  </g>
</svg>
